<svg width="11" height="19" viewBox="0 0 11 19" fill="none" xmlns="http://www.w3.org/2000/svg">
<path d="M0.515625 9.35938C0.520833 9.17708 0.557292 9.01042 0.625 8.85938C0.692708 8.70833 0.796875 8.5625 0.9375 8.42188L8.76562 0.84375C8.98958 0.619792 9.26562 0.507812 9.59375 0.507812C9.8125 0.507812 10.0104 0.559896 10.1875 0.664062C10.3698 0.768229 10.513 0.908854 10.6172 1.08594C10.7266 1.26302 10.7812 1.46094 10.7812 1.67969C10.7812 2.0026 10.6589 2.28646 10.4141 2.53125L3.33594 9.35156L10.4141 16.1797C10.6589 16.4297 10.7812 16.7135 10.7812 17.0312C10.7812 17.2552 10.7266 17.4557 10.6172 17.6328C10.513 17.8099 10.3698 17.9505 10.1875 18.0547C10.0104 18.1641 9.8125 18.2188 9.59375 18.2188C9.26562 18.2188 8.98958 18.1042 8.76562 17.875L0.9375 10.2969C0.791667 10.1562 0.684896 10.0104 0.617188 9.85938C0.549479 9.70312 0.515625 9.53646 0.515625 9.35938Z" fill="#4D5D6D"/>
</svg>
